<?xml version="1.0" encoding="UTF-8"?>
<svg xmlns="http://www.w3.org/2000/svg" xmlns:xlink="http://www.w3.org/1999/xlink" width="595.275591pt" height="841.889764pt" viewBox="0 0 595.275591 841.889764" version="1.2">
<g id="surface41492">
<path style="fill-rule:evenodd;fill:rgb(0%,0%,0%);fill-opacity:1;stroke-width:1.000009;stroke-linecap:round;stroke-linejoin:round;stroke:rgb(0%,0%,0%);stroke-opacity:1;stroke-miterlimit:10;" d="M 1529.003906 1322.005208 L 1529.003906 1281.998698 L 1568.994141 1281.998698 L 1568.994141 1322.005208 Z M 1529.003906 1322.005208 " transform="matrix(0.24,0,0,0.24,0,0)"/>
<path style="fill-rule:evenodd;fill:rgb(0%,0%,0%);fill-opacity:1;stroke-width:1.000009;stroke-linecap:round;stroke-linejoin:round;stroke:rgb(0%,0%,0%);stroke-opacity:1;stroke-miterlimit:10;" d="M 1227.001953 1020.003255 L 1227.001953 979.996745 L 1266.992188 979.996745 L 1266.992188 1020.003255 Z M 1227.001953 1020.003255 " transform="matrix(0.24,0,0,0.24,0,0)"/>
<path style="fill:none;stroke-width:40.268536;stroke-linecap:round;stroke-linejoin:round;stroke:rgb(0%,0%,0%);stroke-opacity:1;stroke-miterlimit:10;" d="M 1549.007161 1302.001953 L 1549.007161 697.998047 " transform="matrix(0.24,0,0,0.24,0,0)"/>
<path style="fill:none;stroke-width:40.268536;stroke-linecap:round;stroke-linejoin:round;stroke:rgb(0%,0%,0%);stroke-opacity:1;stroke-miterlimit:10;" d="M 1549.007161 697.998047 L 541.992188 697.998047 " transform="matrix(0.24,0,0,0.24,0,0)"/>
<path style="fill:none;stroke-width:40.268536;stroke-linecap:round;stroke-linejoin:round;stroke:rgb(0%,0%,0%);stroke-opacity:1;stroke-miterlimit:10;" d="M 541.992188 697.998047 L 541.992188 1200.992839 " transform="matrix(0.24,0,0,0.24,0,0)"/>
<path style="fill:none;stroke-width:40.268536;stroke-linecap:round;stroke-linejoin:round;stroke:rgb(0%,0%,0%);stroke-opacity:1;stroke-miterlimit:10;" d="M 541.992188 1200.992839 L 1447.998047 1200.992839 " transform="matrix(0.24,0,0,0.24,0,0)"/>
<path style="fill:none;stroke-width:40.268536;stroke-linecap:round;stroke-linejoin:round;stroke:rgb(0%,0%,0%);stroke-opacity:1;stroke-miterlimit:10;" d="M 1447.998047 1200.992839 L 1447.998047 799.007161 " transform="matrix(0.24,0,0,0.24,0,0)"/>
<path style="fill:none;stroke-width:40.268536;stroke-linecap:round;stroke-linejoin:round;stroke:rgb(0%,0%,0%);stroke-opacity:1;stroke-miterlimit:10;" d="M 1447.998047 799.007161 L 643.001302 799.007161 " transform="matrix(0.24,0,0,0.24,0,0)"/>
<path style="fill:none;stroke-width:40.268536;stroke-linecap:round;stroke-linejoin:round;stroke:rgb(0%,0%,0%);stroke-opacity:1;stroke-miterlimit:10;" d="M 643.001302 799.007161 L 643.001302 1100.992839 " transform="matrix(0.24,0,0,0.24,0,0)"/>
<path style="fill:none;stroke-width:40.268536;stroke-linecap:round;stroke-linejoin:round;stroke:rgb(0%,0%,0%);stroke-opacity:1;stroke-miterlimit:10;" d="M 643.001302 1100.992839 L 1347.005208 1100.992839 " transform="matrix(0.24,0,0,0.24,0,0)"/>
<path style="fill:none;stroke-width:40.268536;stroke-linecap:round;stroke-linejoin:round;stroke:rgb(0%,0%,0%);stroke-opacity:1;stroke-miterlimit:10;" d="M 1347.005208 1100.992839 L 1347.005208 899.007161 " transform="matrix(0.24,0,0,0.24,0,0)"/>
<path style="fill:none;stroke-width:40.268536;stroke-linecap:round;stroke-linejoin:round;stroke:rgb(0%,0%,0%);stroke-opacity:1;stroke-miterlimit:10;" d="M 1347.005208 899.007161 L 743.001302 899.007161 " transform="matrix(0.24,0,0,0.24,0,0)"/>
<path style="fill:none;stroke-width:40.268536;stroke-linecap:round;stroke-linejoin:round;stroke:rgb(0%,0%,0%);stroke-opacity:1;stroke-miterlimit:10;" d="M 743.001302 899.007161 L 743.001302 1000 " transform="matrix(0.24,0,0,0.24,0,0)"/>
<path style="fill:none;stroke-width:40.268536;stroke-linecap:round;stroke-linejoin:round;stroke:rgb(0%,0%,0%);stroke-opacity:1;stroke-miterlimit:10;" d="M 743.001302 1000 L 1247.005208 1000 " transform="matrix(0.24,0,0,0.24,0,0)"/>
<path style="fill-rule:evenodd;fill:rgb(51.764706%,0%,0%);fill-opacity:1;stroke-width:1.000009;stroke-linecap:round;stroke-linejoin:round;stroke:rgb(51.764706%,0%,0%);stroke-opacity:1;stroke-miterlimit:10;" d="M 1529.003906 1322.005208 L 1529.003906 1281.998698 L 1568.994141 1281.998698 L 1568.994141 1322.005208 Z M 1529.003906 1322.005208 " transform="matrix(0.24,0,0,0.24,0,0)"/>
<path style="fill-rule:evenodd;fill:rgb(51.764706%,0%,0%);fill-opacity:1;stroke-width:1.000009;stroke-linecap:round;stroke-linejoin:round;stroke:rgb(51.764706%,0%,0%);stroke-opacity:1;stroke-miterlimit:10;" d="M 1227.001953 1020.003255 L 1227.001953 979.996745 L 1266.992188 979.996745 L 1266.992188 1020.003255 Z M 1227.001953 1020.003255 " transform="matrix(0.24,0,0,0.24,0,0)"/>
<path style="fill:none;stroke-width:40.268536;stroke-linecap:round;stroke-linejoin:round;stroke:rgb(51.764706%,0%,0%);stroke-opacity:1;stroke-miterlimit:10;" d="M 1549.007161 1302.001953 L 1549.007161 697.998047 " transform="matrix(0.24,0,0,0.24,0,0)"/>
<path style="fill:none;stroke-width:40.268536;stroke-linecap:round;stroke-linejoin:round;stroke:rgb(51.764706%,0%,0%);stroke-opacity:1;stroke-miterlimit:10;" d="M 1549.007161 697.998047 L 541.992188 697.998047 " transform="matrix(0.24,0,0,0.24,0,0)"/>
<path style="fill:none;stroke-width:40.268536;stroke-linecap:round;stroke-linejoin:round;stroke:rgb(51.764706%,0%,0%);stroke-opacity:1;stroke-miterlimit:10;" d="M 541.992188 697.998047 L 541.992188 1200.992839 " transform="matrix(0.24,0,0,0.24,0,0)"/>
<path style="fill:none;stroke-width:40.268536;stroke-linecap:round;stroke-linejoin:round;stroke:rgb(51.764706%,0%,0%);stroke-opacity:1;stroke-miterlimit:10;" d="M 541.992188 1200.992839 L 1447.998047 1200.992839 " transform="matrix(0.24,0,0,0.24,0,0)"/>
<path style="fill:none;stroke-width:40.268536;stroke-linecap:round;stroke-linejoin:round;stroke:rgb(51.764706%,0%,0%);stroke-opacity:1;stroke-miterlimit:10;" d="M 1447.998047 1200.992839 L 1447.998047 799.007161 " transform="matrix(0.24,0,0,0.24,0,0)"/>
<path style="fill:none;stroke-width:40.268536;stroke-linecap:round;stroke-linejoin:round;stroke:rgb(51.764706%,0%,0%);stroke-opacity:1;stroke-miterlimit:10;" d="M 1447.998047 799.007161 L 643.001302 799.007161 " transform="matrix(0.24,0,0,0.24,0,0)"/>
<path style="fill:none;stroke-width:40.268536;stroke-linecap:round;stroke-linejoin:round;stroke:rgb(51.764706%,0%,0%);stroke-opacity:1;stroke-miterlimit:10;" d="M 643.001302 799.007161 L 643.001302 1100.992839 " transform="matrix(0.24,0,0,0.24,0,0)"/>
<path style="fill:none;stroke-width:40.268536;stroke-linecap:round;stroke-linejoin:round;stroke:rgb(51.764706%,0%,0%);stroke-opacity:1;stroke-miterlimit:10;" d="M 643.001302 1100.992839 L 1347.005208 1100.992839 " transform="matrix(0.24,0,0,0.24,0,0)"/>
<path style="fill:none;stroke-width:40.268536;stroke-linecap:round;stroke-linejoin:round;stroke:rgb(51.764706%,0%,0%);stroke-opacity:1;stroke-miterlimit:10;" d="M 1347.005208 1100.992839 L 1347.005208 899.007161 " transform="matrix(0.24,0,0,0.24,0,0)"/>
<path style="fill:none;stroke-width:40.268536;stroke-linecap:round;stroke-linejoin:round;stroke:rgb(51.764706%,0%,0%);stroke-opacity:1;stroke-miterlimit:10;" d="M 1347.005208 899.007161 L 743.001302 899.007161 " transform="matrix(0.24,0,0,0.24,0,0)"/>
<path style="fill:none;stroke-width:40.268536;stroke-linecap:round;stroke-linejoin:round;stroke:rgb(51.764706%,0%,0%);stroke-opacity:1;stroke-miterlimit:10;" d="M 743.001302 899.007161 L 743.001302 1000 " transform="matrix(0.24,0,0,0.24,0,0)"/>
<path style="fill:none;stroke-width:40.268536;stroke-linecap:round;stroke-linejoin:round;stroke:rgb(51.764706%,0%,0%);stroke-opacity:1;stroke-miterlimit:10;" d="M 743.001302 1000 L 1247.005208 1000 " transform="matrix(0.24,0,0,0.24,0,0)"/>
</g>
</svg>
